HIERARCHY
ROOT Hips
{
	OFFSET 102.063210 106.773613 -16.158522
	CHANNELS 6 Xposition Yposition Zposition Xrotation Yrotation Zrotation
	JOINT Chest
	{
		OFFSET -1.076332 13.480690 1.807401
		CHANNELS 3 Xrotation Yrotation Zrotation
		JOINT Chest2
		{
			OFFSET -5.050034 20.094818 5.455461
			CHANNELS 3 Xrotation Yrotation Zrotation
			JOINT Chest3
			{
				OFFSET -5.742523 13.579544 2.332263
				CHANNELS 3 Xrotation Yrotation Zrotation
				JOINT Neck
				{
					OFFSET -4.772102 16.305832 3.156401
					CHANNELS 3 Xrotation Yrotation Zrotation
					JOINT Head
					{
						OFFSET -3.882385 9.164185 3.282138
						CHANNELS 3 Xrotation Yrotation Zrotation
						End Site
						{
							OFFSET -3.903076 9.179626 3.213755
						}
					}
				}
				JOINT LeftCollar
				{
					OFFSET 1.189247 13.737061 3.418084
					CHANNELS 3 Xrotation Yrotation Zrotation
					JOINT LeftUpArm
					{
						OFFSET 9.770386 6.017883 -13.297518
						CHANNELS 3 Xrotation Yrotation Zrotation
						JOINT LeftLowArm
						{
							OFFSET 31.540199 -0.402588 -12.032507
							CHANNELS 3 Xrotation Yrotation Zrotation
							JOINT LeftHand
							{
								OFFSET 29.674103 -4.496231 0.421949
								CHANNELS 3 Xrotation Yrotation Zrotation
								End Site
								{
									OFFSET 6.485458 -0.982681 0.092216
								}
							}
						}
					}
				}
				JOINT RightCollar
				{
					OFFSET -6.080009 10.984848 6.646441
					CHANNELS 3 Xrotation Yrotation Zrotation
					JOINT RightUpArm
					{
						OFFSET -15.965172 -6.965393 -2.256758
						CHANNELS 3 Xrotation Yrotation Zrotation
						JOINT RightLowArm
						{
							OFFSET -27.191902 -15.333740 12.853451
							CHANNELS 3 Xrotation Yrotation Zrotation
							JOINT RightHand
							{
								OFFSET -14.822037 -5.218216 25.574045
								CHANNELS 3 Xrotation Yrotation Zrotation
								End Site
								{
									OFFSET -3.239511 -1.140457 5.589466
								}
							}
						}
					}
				}
			}
		}
	}
	JOINT LeftUpLeg
	{
		OFFSET 8.387817 1.380928 -5.306290
		CHANNELS 3 Xrotation Yrotation Zrotation
		JOINT LeftLowLeg
		{
			OFFSET -0.125099 -46.251442 -10.236113
			CHANNELS 3 Xrotation Yrotation Zrotation
			JOINT LeftFoot
			{
				OFFSET -16.004005 -35.940414 -21.277367
				CHANNELS 3 Xrotation Yrotation Zrotation
				JOINT LeftToe
				{
					OFFSET 8.701424 -21.660093 3.832134
					CHANNELS 3 Xrotation Yrotation Zrotation
					End Site
					{
						OFFSET 16.675568 -11.028722 12.643250
					}
				}
			}
		}
	}
	JOINT RightUpLeg
	{
		OFFSET -8.387802 -1.381126 5.306266
		CHANNELS 3 Xrotation Yrotation Zrotation
		JOINT RightLowLeg
		{
			OFFSET 13.257057 -42.160194 17.052282
			CHANNELS 3 Xrotation Yrotation Zrotation
			JOINT RightFoot
			{
				OFFSET 8.838234 -43.090755 -8.102592
				CHANNELS 3 Xrotation Yrotation Zrotation
				JOINT RightToe
				{
					OFFSET 1.853172 -20.669077 11.353926
					CHANNELS 3 Xrotation Yrotation Zrotation
					End Site
					{
						OFFSET -0.405159 -8.926725 21.902180
					}
				}
			}
		}
	}
}
MOTION
Frames: 17
Frame Time: 0.033333
-85.619286 102.773659 36.206444 0.564248 -246.787439 -0.684014 -3.574493 0.675974 -2.809275 -4.097066 4.215120 -5.631643 -4.882592 16.537269 7.745273 1.409782 -3.166166 1.295514 -0.000000 0.000004 -0.000001 -0.370989 2.962981 12.421521 18.923510 4.186232 40.470951 5.969391 9.238628 47.851643 0.000002 0.000000 -0.000001 1.320111 7.538423 8.556773 -0.777503 6.960741 20.918086 37.917088 12.284166 39.051139 -0.000001 0.000001 -0.000003 -19.627641 -6.879822 18.129817 7.847776 -2.618590 1.564282 -17.146696 -11.572765 -8.880729 -0.000001 0.000002 -0.000000 2.032396 -2.244738 -9.429162 26.053654 7.739012 -10.357937 -18.973813 9.293815 13.666390 0.000000 0.000003 -0.000002 
-84.718071 103.003258 35.107140 0.296353 -250.275097 -0.028013 -3.334352 0.667877 -2.783868 -4.824640 2.838313 -3.731553 -3.700807 17.198432 5.780976 2.338175 -2.528500 0.926255 0.000000 0.000000 0.000000 0.376722 2.534789 12.816648 19.909112 2.928437 40.149034 4.595617 12.605387 50.009644 0.000001 0.000000 -0.000001 1.054235 7.872757 7.632583 -0.973866 8.687508 23.491741 38.135951 9.465906 38.766023 -0.000001 0.000003 -0.000002 -17.501999 -5.769128 15.692674 7.856300 -3.099887 2.406235 -17.568592 -11.588561 -7.688078 -0.000001 0.000006 -0.000001 -3.269270 -2.221601 -7.432627 23.122024 7.848184 -7.825300 -19.028868 6.071315 11.169414 -0.000001 0.000001 -0.000000 
-83.574898 103.227173 33.953819 -1.271297 -254.155792 1.038328 -3.423839 0.277777 -1.329060 -5.077171 1.926019 -2.524515 -3.108311 17.603486 4.077976 3.009442 -2.651122 1.200457 -0.000002 0.000000 -0.000002 1.621125 2.094295 12.795045 20.282675 2.429830 39.259456 4.338539 14.555215 51.698197 0.000004 0.000001 -0.000001 1.102026 6.103936 6.452984 -0.748279 10.057623 26.159152 38.292902 7.654620 38.153819 0.000000 -0.000004 -0.000000 -15.016475 -4.860373 14.419540 7.603387 -3.493279 3.673851 -18.621727 -12.238574 -8.541340 0.000000 0.000003 0.000002 -6.489663 -2.275292 -5.587862 15.157764 6.005186 -3.674504 -18.433934 6.251908 11.054841 -0.000001 -0.000000 -0.000001 
-82.356133 103.455467 32.758614 -2.483561 -257.127444 2.151416 -3.525163 0.289986 -1.285165 -5.164896 0.881005 -1.232460 -2.495546 18.143076 2.772139 3.463863 -3.212196 1.592949 0.000001 0.000001 -0.000003 1.917860 1.707768 12.982918 20.707339 1.245922 38.832282 3.737126 15.696026 52.966392 0.000005 0.000000 -0.000000 0.998842 5.532307 6.413001 -0.107231 9.915132 27.467915 37.698970 6.058393 37.827712 0.000001 -0.000001 -0.000004 -13.228616 -4.413468 13.426509 8.163099 -3.527153 3.437647 -19.794831 -12.996299 -9.855096 0.000001 0.000003 0.000001 -7.491947 -2.148070 -4.645632 8.588644 4.030458 -0.606966 -18.426194 5.604897 10.720697 -0.000001 0.000003 -0.000001 
-80.844475 103.693871 31.531122 -2.856787 -259.432168 2.190095 -3.945574 0.088259 -0.743613 -4.518768 0.507338 -0.733860 -2.223590 17.029584 1.837023 3.503973 -4.684450 2.863096 -0.000001 0.000003 -0.000002 2.277553 1.973359 14.480395 19.956843 0.477672 38.016696 4.707353 11.957754 51.980052 0.000001 0.000001 -0.000002 0.734634 4.910449 6.296927 1.982970 7.673319 28.452399 36.457859 4.155126 37.335016 0.000003 -0.000002 -0.000001 -12.121611 -4.250448 12.873766 10.908721 -3.283707 0.163830 -16.598343 -12.049226 -11.707009 -0.000001 0.000006 -0.000001 -6.012569 -1.874572 -4.244360 3.736558 1.949984 1.704709 -19.597722 5.018858 10.710540 -0.000001 -0.000002 -0.000001 
-78.998390 103.958900 30.292471 -2.499074 -263.374116 1.702792 -4.235393 -0.156566 0.076646 -3.446701 2.484639 -3.312540 -3.492713 14.759171 4.107740 4.645285 -4.194527 2.192403 -0.000000 0.000005 0.000001 2.799363 2.489120 16.032139 20.554107 -0.038714 37.716062 6.077910 11.740780 51.879542 0.000001 -0.000001 -0.000000 0.751536 4.566500 5.596966 4.438349 6.006594 28.941875 36.354710 2.700405 34.806193 0.000000 -0.000002 0.000000 -12.582501 -4.899984 15.198716 14.276759 -2.544257 -8.718852 -7.094552 -7.552522 -10.649598 0.000003 0.000000 0.000002 -2.242686 -1.368872 -3.460669 1.010573 0.486849 1.772751 -22.953155 5.429696 12.164303 0.000002 -0.000001 -0.000002 
-77.108910 104.236053 29.046354 -1.534049 -267.108672 1.066653 -3.647135 0.193256 -1.012933 -3.266406 1.255364 -1.816485 -4.402456 16.871988 4.038575 5.781582 -3.777898 1.742116 0.000001 0.000004 -0.000002 3.685206 1.943084 15.887169 20.910255 0.834062 38.433242 7.156050 10.961209 50.390878 0.000001 0.000000 -0.000003 0.876781 3.808623 5.242328 5.873305 5.163432 29.561100 36.585498 1.284559 33.076052 0.000001 0.000001 -0.000004 -13.840485 -5.365198 16.567648 17.957814 -3.176647 -14.149443 -0.620746 -4.576430 -11.028426 0.000001 0.000004 -0.000000 0.572344 -1.244698 -4.081936 -0.241981 -0.212318 0.434420 -25.259551 7.892885 15.198513 -0.000001 -0.000000 -0.000001 
-74.923271 104.549431 27.824408 4.160062 -272.968647 -4.338991 -2.993287 0.482943 -1.857953 -3.542398 1.144549 -1.523932 -5.268683 19.031786 5.440994 6.152481 -2.903818 0.850703 0.000003 0.000003 -0.000002 3.646457 1.712067 16.718807 20.739212 0.505275 38.995640 7.342648 10.383311 52.068349 0.000000 0.000000 0.000001 0.440636 3.991189 5.033860 6.288286 4.276499 30.662471 37.021913 -1.902122 32.514443 0.000001 0.000001 -0.000003 -16.106716 -7.127947 19.842044 20.265996 -3.088385 -20.035214 3.797960 -1.371616 -8.263213 -0.000000 0.000006 -0.000003 3.716878 -0.971846 -5.104080 -0.676835 -0.678837 -1.384722 -28.053793 9.265229 17.852969 0.000001 0.000000 -0.000003 
-72.532082 104.915314 26.549143 1.433989 -280.501799 -2.042817 -1.399193 0.582536 -1.884583 -4.883560 2.424842 -2.955972 -6.346073 21.329135 8.062977 7.028825 -3.401377 1.239413 -0.000003 0.000002 -0.000001 3.519290 2.764537 18.064571 21.778760 0.661270 39.204866 8.200901 11.148450 50.880856 0.000004 -0.000000 -0.000002 0.776699 6.510931 6.323312 6.246660 6.569338 33.736640 35.321289 -6.913466 28.656240 0.000002 -0.000002 0.000000 -19.146169 -9.569696 23.787151 23.717236 -4.119881 -19.696958 1.117398 -1.811884 -4.564705 -0.000002 -0.000003 -0.000002 6.996347 -0.764109 -5.836345 -1.178392 -1.774708 -4.360584 -30.885029 11.673416 21.094117 -0.000005 -0.000001 -0.000000 
-70.156715 105.255440 25.247393 0.786153 -286.584356 -1.428407 -1.394794 0.969929 -3.347645 -4.823939 2.690429 -3.402605 -7.466787 23.115428 10.269568 7.641413 -3.535948 1.223668 -0.000001 0.000001 -0.000001 3.166147 2.854066 19.502751 21.467715 0.051427 41.045769 7.901357 8.847237 50.566445 0.000000 -0.000002 0.000001 0.474306 8.816619 8.242282 5.317910 7.251784 38.541569 33.068740 -10.108322 26.689697 0.000001 0.000003 -0.000003 -21.428578 -10.421276 24.359310 23.085568 -4.204109 -14.946221 -2.469708 -3.980472 -4.757544 0.000000 0.000004 -0.000000 10.109880 -0.986990 -7.251414 -3.723804 -2.677831 -5.425133 -30.051596 12.710148 21.637758 -0.000001 -0.000000 -0.000001 
-67.593529 105.606773 23.795874 0.157360 -293.232343 -1.090459 -1.539451 1.078234 -3.812862 -5.928480 4.639880 -5.470921 -7.616154 24.598033 13.292516 7.907085 -3.506722 1.304188 0.000000 -0.000000 -0.000003 2.863202 2.961964 21.058467 23.026502 -0.129329 42.181531 7.329606 9.203522 46.843271 0.000001 0.000000 0.000001 0.813247 8.953997 9.359403 5.604517 8.424909 40.919458 30.086181 -13.010841 22.121222 0.000002 -0.000004 -0.000000 -22.189271 -10.469618 23.467844 17.089984 -2.368021 -8.012725 -6.617540 -6.355900 -5.050563 -0.000000 0.000000 -0.000002 13.080074 -0.840337 -8.443669 -4.355555 -2.617299 -6.317987 -29.509925 11.153153 20.257077 -0.000001 0.000001 -0.000001 
-64.788826 105.931618 22.346968 -0.117452 -298.887630 -1.336643 -2.002087 0.976937 -3.790084 -6.457301 4.706820 -5.324143 -7.359046 26.837775 13.886914 8.130135 -3.300474 1.483763 -0.000001 -0.000001 -0.000003 3.386686 3.874350 22.406975 25.612393 0.168320 44.089646 6.973446 12.247739 45.116770 0.000005 -0.000002 0.000000 1.800860 7.140544 9.553863 7.442949 7.926340 39.311987 26.695330 -15.419335 17.238310 0.000000 -0.000004 0.000003 -21.087965 -10.107687 23.359699 9.843474 -0.989456 -1.634730 -4.411296 -4.823705 -4.165044 -0.000001 0.000006 -0.000003 14.913686 -0.627696 -9.119663 -1.688143 -1.446108 -7.053646 -29.475890 10.333196 19.464067 -0.000004 0.000001 -0.000001 
-62.017830 106.234428 20.912210 -0.752593 -302.355782 -0.957289 -2.343833 0.936868 -4.064111 -5.926648 4.348565 -5.074225 -7.691144 27.530081 14.161015 8.970439 -2.761892 0.952204 -0.000001 -0.000001 -0.000003 4.246328 4.224676 23.067466 26.944657 -0.658054 45.232026 6.325747 13.256983 41.647721 -0.000001 0.000000 -0.000001 2.317819 4.732317 9.194977 8.667901 5.881957 36.305771 23.019240 -19.195494 12.358514 0.000003 0.000001 -0.000000 -20.336950 -9.216002 22.409408 3.933315 -0.633848 3.019904 -2.561634 -3.095368 -2.752055 -0.000001 0.000004 -0.000000 15.406579 -0.769170 -9.569163 1.599702 -0.095540 -7.657126 -27.460892 9.064709 17.009760 -0.000003 0.000001 0.000001 
-58.991539 106.478676 19.567472 -0.935946 -302.021321 0.982918 -2.868291 1.192904 -5.559354 -5.425041 3.436638 -4.130889 -5.944017 23.164937 11.415235 10.055227 -1.179814 -0.411396 0.000001 0.000002 -0.000001 5.365511 3.801775 22.952601 28.271266 -1.381546 47.719444 4.891463 15.250434 40.845706 -0.000002 0.000001 0.000001 2.081317 2.318565 8.045661 9.074231 3.931772 34.365789 19.737234 -19.098269 10.205249 0.000003 -0.000004 -0.000003 -19.638064 -7.622585 18.936756 -0.177218 -0.631833 4.975654 -3.810659 -3.930227 -3.687939 0.000000 -0.000002 -0.000000 10.590050 -1.236013 -10.002144 9.655552 2.420098 -11.526779 -20.319123 10.124487 14.477899 -0.000005 -0.000000 0.000000 
-55.755623 106.640854 18.303774 -3.533326 -306.543644 2.577786 -1.428768 1.388046 -6.366979 -4.600880 2.805385 -3.420207 -5.529510 20.036000 9.504780 11.116375 -0.778410 -1.035143 -0.000002 0.000001 -0.000003 6.206238 4.689727 24.108411 29.416686 0.386226 48.897611 5.382859 17.133772 38.430322 -0.000001 -0.000001 0.000001 2.528152 2.669781 7.231173 8.993782 6.861678 36.643459 18.167195 -15.891485 8.630531 0.000002 -0.000002 -0.000001 -17.479646 -6.822508 18.357631 1.245124 -0.415310 2.309405 -6.538133 -4.319219 -0.471538 0.000000 -0.000002 -0.000000 6.284116 -1.136367 -8.201147 17.379538 3.886815 -15.693104 -17.329288 9.463032 12.409575 -0.000003 0.000002 -0.000000 
-52.608284 106.761955 17.124025 -4.728060 -310.417946 3.048049 -0.387311 1.406077 -6.162502 -4.944852 2.964244 -3.511879 -5.284069 18.775679 9.253291 11.530364 0.713450 -2.868761 -0.000002 0.000003 -0.000003 6.862124 4.913274 25.391008 30.910011 -0.002312 51.116627 5.402957 17.745665 39.820969 -0.000002 -0.000001 0.000000 2.701783 2.599135 7.348582 9.365506 6.689398 37.592326 16.568138 -13.174836 7.846188 0.000000 -0.000002 -0.000003 -14.992958 -6.078838 18.562769 2.513972 -0.159509 1.138291 -8.511711 -5.203491 0.723647 -0.000001 0.000003 -0.000003 4.232210 -0.843806 -5.363988 22.287814 4.134742 -19.438773 -17.614288 9.958132 12.803996 -0.000003 -0.000003 -0.000001 
-49.410927 106.890785 15.988272 -3.922378 -311.090173 3.092408 -0.168762 1.275674 -5.776764 -3.741024 1.929082 -2.308886 -4.634592 15.734348 7.668909 12.089887 1.718611 -4.161302 -0.000001 -0.000000 -0.000005 7.573095 4.768065 24.673276 30.690335 -1.526578 48.867845 5.962753 18.219808 42.548537 -0.000001 0.000000 -0.000001 3.463562 1.634066 7.770011 8.625702 7.175888 34.907925 17.061778 -9.310422 8.669878 -0.000001 -0.000004 -0.000003 -14.065166 -5.355419 17.503528 2.233041 0.300903 1.582270 -9.247268 -6.292685 -0.645150 -0.000000 0.000003 -0.000000 0.712407 -1.268722 -4.648895 18.910752 2.984459 -18.287580 -16.627990 11.611148 13.268600 -0.000003 -0.000001 -0.000001 
